HIERARCHY
ROOT pelvis
{
  OFFSET 0 100 0
  CHANNELS 6 Xposition Yposition Zposition Zrotation Xrotation Yrotation
  JOINT pelvis_right_femur
  {
    OFFSET -10.78128 -3.44521 -0.5502486
    CHANNELS 3 Zrotation Xrotation Yrotation
    JOINT right_femur_tibia
    {
      OFFSET -0.8047443 -44.0398 -0.1307829
      CHANNELS 3 Zrotation Xrotation Yrotation
      JOINT right_tibia_foot
      {
        OFFSET 3.006224 -47.83518 -5
        CHANNELS 3 Zrotation Xrotation Yrotation
        End Site
        {
          OFFSET 0 -5 15
        }
      }
    }
  }
  JOINT pelvis_left_femur
  {
    OFFSET 10.78128 -3.44521 -0.5502486
    CHANNELS 3 Zrotation Xrotation Yrotation
    JOINT left_femur_tibia
    {
      OFFSET 0.8047443 -44.0398 -0.1307829
      CHANNELS 3 Zrotation Xrotation Yrotation
      JOINT left_tibia_foot
      {
        OFFSET -4.370144 -48.10324 -4.275266
        CHANNELS 3 Zrotation Xrotation Yrotation
        End Site
        {
          OFFSET 0 -5 15
        }
      }
    }
  }
  JOINT pelvis_spine1
  {
    OFFSET 0 6.468898 -3.129235
    CHANNELS 3 Zrotation Xrotation Yrotation
    JOINT spine1
    {
      OFFSET 0 23.15396 4.99043
      CHANNELS 3 Zrotation Xrotation Yrotation
      JOINT spine2
      {
        OFFSET 0 20.79997 -5.064912
        CHANNELS 3 Zrotation Xrotation Yrotation
        JOINT neck
        {
          OFFSET 0 14.38658 9.616178
          CHANNELS 3 Zrotation Xrotation Yrotation
          End Site
          {
            OFFSET 0 20 0
          }
        }
      }
      JOINT right_manubrium
      {
        OFFSET -5.722621 16.35077 3.967754
        CHANNELS 3 Zrotation Xrotation Yrotation
        JOINT right_clavicle
        {
          OFFSET -13.16364 1.694482 -4.693211
          CHANNELS 3 Zrotation Xrotation Yrotation
          JOINT right_humerus
          {
            OFFSET -28.5034 -0.3100689 -2.792744
            CHANNELS 3 Zrotation Xrotation Yrotation
            JOINT right_radius
            {
              OFFSET -25.15693 0.02248979 -1.271978
              CHANNELS 3 Zrotation Xrotation Yrotation
              End Site
              {
                OFFSET -15 0 0
              }
            }
          }
        }
      }
      JOINT left_manubrium
      {
        OFFSET 5.722621 16.35077 3.967754
        CHANNELS 3 Zrotation Xrotation Yrotation
        JOINT left_clavicle
        {
          OFFSET 13.16364 1.694482 -4.693211
          CHANNELS 3 Zrotation Xrotation Yrotation
          JOINT left_humerus
          {
            OFFSET 29.39168 -1.063119 -2.237045
            CHANNELS 3 Zrotation Xrotation Yrotation
            JOINT left_radius
            {
              OFFSET 24.59957 -0.9528479 0.9047498
              CHANNELS 3 Zrotation Xrotation Yrotation
              End Site
              {
                OFFSET 15 -0 -0
              }
            }
          }
        }
      }
    }
  }
}
MOTION
Frames: 9
Frame Time: 0.0416666666667
0 103.5113 0 2.191447 -1.156467 0.2659131 1.232592 -10.13304 8.668791 -0 34.05699 -0 -5.239476 -17.85972 -2.261805 -8.050693 10.08977 -23.47443 -0 5.151819 -0 7.658008 -16.19562 26.54384 -4.357655 -5.047083 4.976112 2.037881 9.215731 -7.734385 0.8379672 22.78243 7.179755 3.260959 -23.11294 8.809823 6.363988 -19.73569 11.58 86.31966 35.95095 -19.82306 -0 0 16.2157 -7.580328 8.248568 4.61245 5.538797 -19.49437 -1.689132 -94.76308 29.73525 22.86546 0 0 -16.11358 3.535865 17.87887 9.520704
0.3560922 103.3319 1.419463 2.073333 -0.9530364 0.417259 1.451124 -11.17164 8.421311 -0 32.72098 -0 -5.21925 -17.24725 -2.056208 -7.95759 10.22464 -23.28724 -0 5.237904 -0 7.474248 -16.54955 26.29409 -4.341959 -4.853467 4.973675 2.163179 9.188316 -7.729094 0.8655261 22.61838 7.20451 3.304429 -23.26281 8.837073 6.325589 -19.62342 11.58673 86.32982 35.9387 -19.94793 -0 0 16.02402 -7.624295 8.292839 4.621309 5.699299 -19.56404 -1.680714 -94.62534 29.6737 22.57911 0 0 -16.65109 3.657296 17.74924 9.412497
0.7445845 103.0636 2.997295 1.939499 -0.645615 0.4914274 1.690662 -12.55929 8.016663 -0 30.28751 -0 -5.171088 -16.30386 -1.646546 -7.869572 10.41911 -22.98325 -0 5.414517 -0 7.186824 -17.05269 25.88973 -4.34569 -4.604413 4.997905 2.344252 9.14725 -7.70134 0.9078003 22.38362 7.232431 3.369074 -23.46112 8.864975 6.255149 -19.4408 11.58969 86.36278 35.92123 -20.15496 -0 0 15.71444 -7.687148 8.361083 4.630053 5.95392 -19.67502 -1.665797 -94.41563 29.5884 22.12562 0 0 -17.46093 3.823381 17.56965 9.245357
1.17701 102.6736 4.79721 1.832898 -0.2334422 0.5123684 1.875729 -14.11864 7.441481 -0 26.55408 -0 -5.094837 -15.03433 -1.002479 -7.834128 10.68208 -22.53881 -0 5.755123 -0 6.77478 -17.66764 25.29055 -4.380308 -4.344386 5.057473 2.553576 9.095027 -7.638536 0.9642557 22.10877 7.257484 3.452139 -23.67655 8.886869 6.139974 -19.17942 11.5747 86.44339 35.89914 -20.45537 -0 0 15.27656 -7.768202 8.456487 4.640211 6.292999 -19.84358 -1.637334 -94.12313 29.48949 21.50118 0 0 -18.49774 4.007396 17.34564 9.029371
1.660286 102.1416 6.884242 1.773407 0.2719662 0.5323516 1.964863 -15.66201 6.710935 -0 21.61672 -0 -5.014102 -13.50613 -0.1477779 -7.868395 11.01499 -21.94116 -0 6.345975 -0 6.210165 -18.32656 24.46377 -4.435202 -4.111507 5.141291 2.763674 9.034427 -7.54705 1.026803 21.82571 7.278972 3.546529 -23.87971 8.897332 5.978707 -18.84143 11.53047 86.59375 35.87332 -20.84916 -0 0 14.71264 -7.866986 8.582132 4.656075 6.683501 -20.07225 -1.595263 -93.75099 29.38263 20.73575 0 0 -19.66885 4.181676 17.08117 8.790095
2.189263 101.4833 9.324717 1.738372 0.8382318 0.6206108 1.979989 -16.94366 5.898088 -0 16.08153 -0 -4.986774 -11.9097 0.8145042 -7.932007 11.40516 -21.18891 -0 7.332304 -0 5.441166 -18.88839 23.37648 -4.455694 -3.938856 5.200552 2.947653 8.967544 -7.47104 1.070485 21.56937 7.306337 3.636028 -24.04007 8.889923 5.790681 -18.44436 11.44889 86.83759 35.84669 -21.32219 -0 0 14.03938 -7.983593 8.743116 4.686997 7.045379 -20.33588 -1.556197 -93.32832 29.26675 19.92128 0 0 -20.78511 4.313778 16.7776 8.585482
2.74606 100.7591 12.18535 1.683847 1.422024 0.8507287 1.980098 -17.70022 5.104894 -0 10.75625 -0 -5.071542 -10.47923 1.755986 -7.960299 11.82054 -20.289 -0 8.899014 -0 4.411641 -19.16502 22.00263 -4.369366 -3.853787 5.177427 3.082024 8.896833 -7.464786 1.065275 21.37151 7.35116 3.701126 -24.12906 8.856749 5.603651 -18.01178 11.32714 87.19371 35.82291 -21.85165 -0 0 13.28077 -8.120286 8.945163 4.744826 7.282398 -20.59441 -1.544731 -92.898 29.13853 19.17589 0 0 -21.62757 4.371858 16.43526 8.48272
3.311608 100.0603 15.52011 1.571045 1.972679 1.262636 2.018537 -17.73321 4.418489 -0 6.254445 -0 -5.296592 -9.367977 2.583008 -7.90673 12.16515 -19.26678 -0 11.25284 -0 3.096708 -18.93722 20.35243 -4.125634 -3.865922 5.060345 3.158529 8.829986 -7.542271 0.9968518 21.24189 7.412415 3.728278 -24.13174 8.7874 5.438161 -17.56448 11.18272 87.64997 35.80487 -22.40188 -0 0 12.46913 -8.287303 9.190588 4.841028 7.334071 -20.80019 -1.579224 -92.51405 28.99335 18.6017 0 0 -22.06216 4.337638 16.05624 8.517363
3.874226 99.50421 19.35524 1.369236 2.417359 1.819219 2.136018 -16.83403 3.9206 -0 3.092779 -0 -5.675762 -8.680899 3.217124 -7.7334 12.2463 -18.16306 -0 14.70907 -0 1.49709 -17.89717 18.47295 -3.685306 -3.972755 4.885399 3.179349 8.783231 -7.67703 0.8625262 21.17425 7.475755 3.706644 -24.03876 8.664784 5.310399 -17.12257 11.05662 88.16377 35.79768 -22.91775 -0 0 11.64799 -8.507678 9.480864 4.991095 7.161129 -20.88853 -1.673865 -92.25265 28.82397 18.3064 0 0 -22.00548 4.198177 15.64241 8.703477
